<svg xmlns="http://www.w3.org/2000/svg" width="112" height="36" viewBox="0 0 112 36" role="img" aria-label="Google Pay">
  <rect width="112" height="36" rx="12" fill="#fff"/>
  <path d="M23.8 16.2v3.5h4.9c-.3 1.2-.9 2.1-1.9 2.8-1 .7-2.2 1.1-3.7 1.1-2.9 0-5.4-2.4-5.4-5.6s2.5-5.6 5.4-5.6c1.6 0 2.8.6 3.8 1.5l2.7-2.7c-1.6-1.5-3.7-2.4-6.5-2.4-5.1 0-9.3 4-9.3 9.2s4.2 9.2 9.3 9.2c2.7 0 4.9-.9 6.5-2.5 1.7-1.7 2.2-4 2.2-5.9 0-.6-.1-1.1-.2-1.6h-7.8Z" fill="#4285F4"/>
  <text x="38" y="24" font-family="Inter, Arial, sans-serif" font-size="16" font-weight="800" fill="#1F2937">Pay</text>
  <circle cx="63" cy="14" r="3" fill="#EA4335"/>
  <circle cx="71" cy="14" r="3" fill="#FBBC05"/>
  <circle cx="63" cy="22" r="3" fill="#34A853"/>
  <circle cx="71" cy="22" r="3" fill="#4285F4"/>
</svg>
